<svg width="587" height="121" viewBox="0 0 587 121" fill="none" xmlns="http://www.w3.org/2000/svg">
<path d="M510.16 71L541.66 1H554.46L586.06 71H572.46L545.36 7.9H550.56L523.56 71H510.16ZM524.66 54.8L528.16 44.6H565.96L569.46 54.8H524.66Z" fill="black"/>
<path d="M478.87 72C473.403 72 468.17 71.2333 463.17 69.7C458.17 68.1 454.203 66.0667 451.27 63.6L455.77 53.5C458.57 55.7 462.036 57.5333 466.17 59C470.303 60.4667 474.536 61.2 478.87 61.2C482.536 61.2 485.503 60.8 487.77 60C490.036 59.2 491.703 58.1333 492.77 56.8C493.836 55.4 494.37 53.8333 494.37 52.1C494.37 49.9667 493.603 48.2667 492.07 47C490.536 45.6667 488.536 44.6333 486.07 43.9C483.67 43.1 480.97 42.3667 477.97 41.7C475.036 41.0333 472.07 40.2667 469.07 39.4C466.136 38.4667 463.436 37.3 460.97 35.9C458.57 34.4333 456.603 32.5 455.07 30.1C453.536 27.7 452.77 24.6333 452.77 20.9C452.77 17.1 453.77 13.6333 455.77 10.5C457.836 7.3 460.936 4.76666 465.07 2.9C469.27 0.966665 474.57 0 480.97 0C485.17 0 489.336 0.533333 493.47 1.6C497.603 2.66667 501.203 4.2 504.27 6.2L500.17 16.3C497.036 14.4333 493.803 13.0667 490.47 12.2C487.136 11.2667 483.936 10.8 480.87 10.8C477.27 10.8 474.336 11.2333 472.07 12.1C469.87 12.9667 468.236 14.1 467.17 15.5C466.17 16.9 465.67 18.5 465.67 20.3C465.67 22.4333 466.403 24.1667 467.87 25.5C469.403 26.7667 471.37 27.7667 473.77 28.5C476.236 29.2333 478.97 29.9667 481.97 30.7C484.97 31.3667 487.936 32.1333 490.87 33C493.87 33.8667 496.57 35 498.97 36.4C501.436 37.8 503.403 39.7 504.87 42.1C506.403 44.5 507.17 47.5333 507.17 51.2C507.17 54.9333 506.136 58.4 504.07 61.6C502.07 64.7333 498.97 67.2667 494.77 69.2C490.57 71.0667 485.27 72 478.87 72Z" fill="black"/>
<path d="M372.367 71L403.867 1H416.667L448.267 71H434.667L407.567 7.9H412.767L385.767 71H372.367ZM386.867 54.8L390.367 44.6H428.167L431.667 54.8H386.867Z" fill="black"/>
<path d="M324.043 54.5L323.343 39.1L360.043 1H374.643L344.143 33.4L336.943 41.3L324.043 54.5ZM312.443 71V1H325.443V71H312.443ZM361.243 71L334.443 39.1L343.043 29.6L376.443 71H361.243Z" fill="black"/>
<path d="M239.298 71V1H268.098C274.298 1 279.598 2 283.998 4C288.465 6 291.898 8.86667 294.298 12.6C296.698 16.3333 297.898 20.7667 297.898 25.9C297.898 31.0333 296.698 35.4667 294.298 39.2C291.898 42.8667 288.465 45.7 283.998 47.7C279.598 49.6333 274.298 50.6 268.098 50.6H246.498L252.298 44.7V71H239.298ZM285.098 71L267.398 45.6H281.298L299.098 71H285.098ZM252.298 46.1L246.498 39.9H267.498C273.232 39.9 277.532 38.6667 280.398 36.2C283.332 33.7333 284.798 30.3 284.798 25.9C284.798 21.4333 283.332 18 280.398 15.6C277.532 13.2 273.232 12 267.498 12H246.498L252.298 5.6V46.1Z" fill="black"/>
<path d="M184.306 30.1H219.106V40.8H184.306V30.1ZM185.306 60.1H224.806V71H172.306V1H223.406V11.9H185.306V60.1Z" fill="black"/>
<path d="M100.724 71V1H129.524C135.724 1 141.024 2 145.424 4C149.891 6 153.324 8.86667 155.724 12.6C158.124 16.3333 159.324 20.7667 159.324 25.9C159.324 31.0333 158.124 35.4667 155.724 39.2C153.324 42.9333 149.891 45.8 145.424 47.8C141.024 49.8 135.724 50.8 129.524 50.8H107.924L113.724 44.7V71H100.724ZM113.724 46.1L107.924 39.8H128.924C134.657 39.8 138.957 38.6 141.824 36.2C144.757 33.7333 146.224 30.3 146.224 25.9C146.224 21.4333 144.757 18 141.824 15.6C138.957 13.2 134.657 12 128.924 12H107.924L113.724 5.6V46.1Z" fill="black"/>
<path d="M68.7905 71V1H81.7905V71H68.7905Z" fill="black"/>
<path d="M27.6 72C22.1333 72 16.9 71.2333 11.9 69.7C6.9 68.1 2.93333 66.0667 0 63.6L4.5 53.5C7.3 55.7 10.7667 57.5333 14.9 59C19.0333 60.4667 23.2667 61.2 27.6 61.2C31.2667 61.2 34.2333 60.8 36.5 60C38.7667 59.2 40.4333 58.1333 41.5 56.8C42.5667 55.4 43.1 53.8333 43.1 52.1C43.1 49.9667 42.3333 48.2667 40.8 47C39.2667 45.6667 37.2667 44.6333 34.8 43.9C32.4 43.1 29.7 42.3667 26.7 41.7C23.7667 41.0333 20.8 40.2667 17.8 39.4C14.8667 38.4667 12.1667 37.3 9.7 35.9C7.3 34.4333 5.33333 32.5 3.8 30.1C2.26667 27.7 1.5 24.6333 1.5 20.9C1.5 17.1 2.5 13.6333 4.5 10.5C6.56667 7.3 9.66667 4.76666 13.8 2.9C18 0.966665 23.3 0 29.7 0C33.9 0 38.0667 0.533333 42.2 1.6C46.3333 2.66667 49.9333 4.2 53 6.2L48.9 16.3C45.7667 14.4333 42.5333 13.0667 39.2 12.2C35.8667 11.2667 32.6667 10.8 29.6 10.8C26 10.8 23.0667 11.2333 20.8 12.1C18.6 12.9667 16.9667 14.1 15.9 15.5C14.9 16.9 14.4 18.5 14.4 20.3C14.4 22.4333 15.1333 24.1667 16.6 25.5C18.1333 26.7667 20.1 27.7667 22.5 28.5C24.9667 29.2333 27.7 29.9667 30.7 30.7C33.7 31.3667 36.6667 32.1333 39.6 33C42.6 33.8667 45.3 35 47.7 36.4C50.1667 37.8 52.1333 39.7 53.6 42.1C55.1333 44.5 55.9 47.5333 55.9 51.2C55.9 54.9333 54.8667 58.4 52.8 61.6C50.8 64.7333 47.7 67.2667 43.5 69.2C39.3 71.0667 34 72 27.6 72Z" fill="black"/>
<path d="M561.582 120L569.582 102.5H571.407L579.407 120H577.457L570.107 103.575H570.857L563.507 120H561.582ZM564.732 115.325L565.282 113.825H575.457L576.007 115.325H564.732Z" fill="black"/>
<path d="M548.892 115.65L548.817 113.4L559.417 102.5H561.542L553.817 110.6L552.767 111.725L548.892 115.65ZM547.292 120V102.5H549.142V120H547.292ZM559.867 120L552.317 111.3L553.567 109.95L562.067 120H559.867Z" fill="black"/>
<path d="M526.572 120L534.572 102.5H536.397L544.397 120H542.447L535.097 103.575H535.847L528.497 120H526.572ZM529.722 115.325L530.272 113.825H540.447L540.997 115.325H529.722Z" fill="black"/>
<path d="M518.816 120.15C517.516 120.15 516.266 119.942 515.066 119.525C513.883 119.092 512.966 118.542 512.316 117.875L513.041 116.45C513.658 117.05 514.483 117.558 515.516 117.975C516.566 118.375 517.666 118.575 518.816 118.575C519.916 118.575 520.808 118.442 521.491 118.175C522.191 117.892 522.7 117.517 523.016 117.05C523.35 116.583 523.516 116.067 523.516 115.5C523.516 114.817 523.316 114.267 522.916 113.85C522.533 113.433 522.025 113.108 521.391 112.875C520.758 112.625 520.058 112.408 519.291 112.225C518.525 112.042 517.758 111.85 516.991 111.65C516.225 111.433 515.516 111.15 514.866 110.8C514.233 110.45 513.716 109.992 513.316 109.425C512.933 108.842 512.741 108.083 512.741 107.15C512.741 106.283 512.966 105.492 513.416 104.775C513.883 104.042 514.591 103.458 515.541 103.025C516.491 102.575 517.708 102.35 519.191 102.35C520.175 102.35 521.15 102.492 522.116 102.775C523.083 103.042 523.916 103.417 524.616 103.9L523.991 105.375C523.241 104.875 522.441 104.508 521.591 104.275C520.758 104.042 519.95 103.925 519.166 103.925C518.116 103.925 517.25 104.067 516.566 104.35C515.883 104.633 515.375 105.017 515.041 105.5C514.725 105.967 514.566 106.5 514.566 107.1C514.566 107.783 514.758 108.333 515.141 108.75C515.541 109.167 516.058 109.492 516.691 109.725C517.341 109.958 518.05 110.167 518.816 110.35C519.583 110.533 520.341 110.733 521.091 110.95C521.858 111.167 522.558 111.45 523.191 111.8C523.841 112.133 524.358 112.583 524.741 113.15C525.141 113.717 525.341 114.458 525.341 115.375C525.341 116.225 525.108 117.017 524.641 117.75C524.175 118.467 523.458 119.05 522.491 119.5C521.541 119.933 520.316 120.15 518.816 120.15Z" fill="black"/>
<path d="M501.241 120.15C499.008 120.15 497.25 119.508 495.966 118.225C494.683 116.942 494.042 115.042 494.042 112.525V102.5H495.891V112.45C495.891 114.517 496.358 116.042 497.292 117.025C498.225 118.008 499.541 118.5 501.241 118.5C502.958 118.5 504.283 118.008 505.216 117.025C506.15 116.042 506.616 114.517 506.616 112.45V102.5H508.417V112.525C508.417 115.042 507.775 116.942 506.491 118.225C505.225 119.508 503.475 120.15 501.241 120.15Z" fill="black"/>
<path d="M476.369 120V102.5H482.919C484.402 102.5 485.677 102.742 486.744 103.225C487.811 103.692 488.627 104.375 489.194 105.275C489.777 106.158 490.069 107.233 490.069 108.5C490.069 109.733 489.777 110.8 489.194 111.7C488.627 112.583 487.811 113.267 486.744 113.75C485.677 114.233 484.402 114.475 482.919 114.475H477.394L478.219 113.6V120H476.369ZM478.219 113.75L477.394 112.85H482.869C484.619 112.85 485.944 112.475 486.844 111.725C487.761 110.958 488.219 109.883 488.219 108.5C488.219 107.1 487.761 106.017 486.844 105.25C485.944 104.483 484.619 104.1 482.869 104.1H477.394L478.219 103.225V113.75Z" fill="black"/>
<path d="M449.489 120V102.5H451.014L463.089 117.7H462.289V102.5H464.114V120H462.589L450.539 104.8H451.339V120H449.489Z" fill="black"/>
<path d="M428.77 120L436.77 102.5H438.595L446.595 120H444.645L437.295 103.575H438.045L430.695 120H428.77ZM431.92 115.325L432.47 113.825H442.645L443.195 115.325H431.92Z" fill="black"/>
<path d="M410.63 120L418.63 102.5H420.455L428.455 120H426.505L419.155 103.575H419.905L412.555 120H410.63ZM413.78 115.325L414.33 113.825H424.505L425.055 115.325H413.78Z" fill="black"/>
<path d="M397.94 115.65L397.865 113.4L408.465 102.5H410.59L402.865 110.6L401.815 111.725L397.94 115.65ZM396.34 120V102.5H398.19V120H396.34ZM408.915 120L401.365 111.3L402.615 109.95L411.115 120H408.915Z" fill="black"/>
<path d="M375.62 120L383.62 102.5H385.445L393.445 120H391.495L384.145 103.575H384.895L377.545 120H375.62ZM378.77 115.325L379.32 113.825H389.495L390.045 115.325H378.77Z" fill="black"/>
<path d="M368.343 120V104.1H362.193V102.5H376.343V104.1H370.193V120H368.343Z" fill="black"/>
<path d="M354.632 120.15C353.332 120.15 352.082 119.942 350.882 119.525C349.699 119.092 348.782 118.542 348.132 117.875L348.857 116.45C349.474 117.05 350.299 117.558 351.332 117.975C352.382 118.375 353.482 118.575 354.632 118.575C355.732 118.575 356.624 118.442 357.307 118.175C358.007 117.892 358.515 117.517 358.832 117.05C359.165 116.583 359.332 116.067 359.332 115.5C359.332 114.817 359.132 114.267 358.732 113.85C358.349 113.433 357.84 113.108 357.207 112.875C356.574 112.625 355.874 112.408 355.107 112.225C354.34 112.042 353.574 111.85 352.807 111.65C352.04 111.433 351.332 111.15 350.682 110.8C350.049 110.45 349.532 109.992 349.132 109.425C348.749 108.842 348.557 108.083 348.557 107.15C348.557 106.283 348.782 105.492 349.232 104.775C349.699 104.042 350.407 103.458 351.357 103.025C352.307 102.575 353.524 102.35 355.007 102.35C355.99 102.35 356.965 102.492 357.932 102.775C358.899 103.042 359.732 103.417 360.432 103.9L359.807 105.375C359.057 104.875 358.257 104.508 357.407 104.275C356.574 104.042 355.765 103.925 354.982 103.925C353.932 103.925 353.065 104.067 352.382 104.35C351.699 104.633 351.19 105.017 350.857 105.5C350.54 105.967 350.382 106.5 350.382 107.1C350.382 107.783 350.574 108.333 350.957 108.75C351.357 109.167 351.874 109.492 352.507 109.725C353.157 109.958 353.865 110.167 354.632 110.35C355.399 110.533 356.157 110.733 356.907 110.95C357.674 111.167 358.374 111.45 359.007 111.8C359.657 112.133 360.174 112.583 360.557 113.15C360.957 113.717 361.157 114.458 361.157 115.375C361.157 116.225 360.924 117.017 360.457 117.75C359.99 118.467 359.274 119.05 358.307 119.5C357.357 119.933 356.132 120.15 354.632 120.15Z" fill="black"/>
<path d="M337.057 120.15C334.824 120.15 333.065 119.508 331.782 118.225C330.499 116.942 329.857 115.042 329.857 112.525V102.5H331.707V112.45C331.707 114.517 332.174 116.042 333.107 117.025C334.04 118.008 335.357 118.5 337.057 118.5C338.774 118.5 340.099 118.008 341.032 117.025C341.965 116.042 342.432 114.517 342.432 112.45V102.5H344.232V112.525C344.232 115.042 343.59 116.942 342.307 118.225C341.04 119.508 339.29 120.15 337.057 120.15Z" fill="black"/>
<path d="M312.185 120V102.5H318.735C320.218 102.5 321.493 102.742 322.56 103.225C323.626 103.692 324.443 104.375 325.01 105.275C325.593 106.158 325.885 107.233 325.885 108.5C325.885 109.733 325.593 110.8 325.01 111.7C324.443 112.583 323.626 113.267 322.56 113.75C321.493 114.233 320.218 114.475 318.735 114.475H313.21L314.035 113.6V120H312.185ZM314.035 113.75L313.21 112.85H318.685C320.435 112.85 321.76 112.475 322.66 111.725C323.576 110.958 324.035 109.883 324.035 108.5C324.035 107.1 323.576 106.017 322.66 105.25C321.76 104.483 320.435 104.1 318.685 104.1H313.21L314.035 103.225V113.75Z" fill="black"/>
<path d="M294.118 120V102.5H300.668C302.151 102.5 303.426 102.742 304.493 103.225C305.56 103.692 306.376 104.375 306.943 105.275C307.526 106.158 307.818 107.233 307.818 108.5C307.818 109.733 307.526 110.8 306.943 111.7C306.376 112.583 305.56 113.267 304.493 113.75C303.426 114.217 302.151 114.45 300.668 114.45H295.143L295.968 113.6V120H294.118ZM306.068 120L301.568 113.65H303.568L308.093 120H306.068ZM295.968 113.75L295.143 112.875H300.618C302.368 112.875 303.693 112.492 304.593 111.725C305.51 110.958 305.968 109.883 305.968 108.5C305.968 107.1 305.51 106.017 304.593 105.25C303.693 104.483 302.368 104.1 300.618 104.1H295.143L295.968 103.225V113.75Z" fill="black"/>
<path d="M279.045 110.325H288.295V111.9H279.045V110.325ZM279.245 118.4H289.77V120H277.395V102.5H289.395V104.1H279.245V118.4Z" fill="black"/>
<path d="M259.694 120V102.5H266.244C267.728 102.5 269.003 102.742 270.069 103.225C271.136 103.692 271.953 104.375 272.519 105.275C273.103 106.158 273.394 107.233 273.394 108.5C273.394 109.733 273.103 110.8 272.519 111.7C271.953 112.583 271.136 113.267 270.069 113.75C269.003 114.233 267.728 114.475 266.244 114.475H260.719L261.544 113.6V120H259.694ZM261.544 113.75L260.719 112.85H266.194C267.944 112.85 269.269 112.475 270.169 111.725C271.086 110.958 271.544 109.883 271.544 108.5C271.544 107.1 271.086 106.017 270.169 105.25C269.269 104.483 267.944 104.1 266.194 104.1H260.719L261.544 103.225V113.75Z" fill="black"/>
<path d="M245.607 120V102.5H247.457V120H245.607Z" fill="black"/>
<path d="M235.052 120.15C233.752 120.15 232.502 119.942 231.302 119.525C230.118 119.092 229.202 118.542 228.552 117.875L229.277 116.45C229.893 117.05 230.718 117.558 231.752 117.975C232.802 118.375 233.902 118.575 235.052 118.575C236.152 118.575 237.043 118.442 237.727 118.175C238.427 117.892 238.935 117.517 239.252 117.05C239.585 116.583 239.752 116.067 239.752 115.5C239.752 114.817 239.552 114.267 239.152 113.85C238.768 113.433 238.26 113.108 237.627 112.875C236.993 112.625 236.293 112.408 235.527 112.225C234.76 112.042 233.993 111.85 233.227 111.65C232.46 111.433 231.752 111.15 231.102 110.8C230.468 110.45 229.952 109.992 229.552 109.425C229.168 108.842 228.977 108.083 228.977 107.15C228.977 106.283 229.202 105.492 229.652 104.775C230.118 104.042 230.827 103.458 231.777 103.025C232.727 102.575 233.943 102.35 235.427 102.35C236.41 102.35 237.385 102.492 238.352 102.775C239.318 103.042 240.152 103.417 240.852 103.9L240.227 105.375C239.477 104.875 238.677 104.508 237.827 104.275C236.993 104.042 236.185 103.925 235.402 103.925C234.352 103.925 233.485 104.067 232.802 104.35C232.118 104.633 231.61 105.017 231.277 105.5C230.96 105.967 230.802 106.5 230.802 107.1C230.802 107.783 230.993 108.333 231.377 108.75C231.777 109.167 232.293 109.492 232.927 109.725C233.577 109.958 234.285 110.167 235.052 110.35C235.818 110.533 236.577 110.733 237.327 110.95C238.093 111.167 238.793 111.45 239.427 111.8C240.077 112.133 240.593 112.583 240.977 113.15C241.377 113.717 241.577 114.458 241.577 115.375C241.577 116.225 241.343 117.017 240.877 117.75C240.41 118.467 239.693 119.05 238.727 119.5C237.777 119.933 236.552 120.15 235.052 120.15Z" fill="black"/>
<path d="M209.507 120L217.507 102.5H219.332L227.332 120H225.382L218.032 103.575H218.782L211.432 120H209.507ZM212.657 115.325L213.207 113.825H223.382L223.932 115.325H212.657Z" fill="black"/>
<path d="M188.43 120V102.5H189.955L197.955 116.15H197.155L205.08 102.5H206.605V120H204.83V105.275H205.255L197.955 117.775H197.08L189.73 105.275H190.205V120H188.43Z" fill="black"/>
<path d="M170.363 120V102.5H176.913C178.397 102.5 179.672 102.742 180.738 103.225C181.805 103.692 182.622 104.375 183.188 105.275C183.772 106.158 184.063 107.233 184.063 108.5C184.063 109.733 183.772 110.8 183.188 111.7C182.622 112.583 181.805 113.267 180.738 113.75C179.672 114.217 178.397 114.45 176.913 114.45H171.388L172.213 113.6V120H170.363ZM182.313 120L177.813 113.65H179.813L184.338 120H182.313ZM172.213 113.75L171.388 112.875H176.863C178.613 112.875 179.938 112.492 180.838 111.725C181.755 110.958 182.213 109.883 182.213 108.5C182.213 107.1 181.755 106.017 180.838 105.25C179.938 104.483 178.613 104.1 176.863 104.1H171.388L172.213 103.225V113.75Z" fill="black"/>
<path d="M157.042 120.15C155.725 120.15 154.5 119.933 153.367 119.5C152.25 119.05 151.275 118.425 150.442 117.625C149.625 116.808 148.983 115.867 148.517 114.8C148.067 113.717 147.842 112.533 147.842 111.25C147.842 109.967 148.067 108.792 148.517 107.725C148.983 106.642 149.625 105.7 150.442 104.9C151.275 104.083 152.25 103.458 153.367 103.025C154.483 102.575 155.708 102.35 157.042 102.35C158.358 102.35 159.575 102.575 160.692 103.025C161.808 103.458 162.775 104.075 163.592 104.875C164.425 105.675 165.067 106.617 165.517 107.7C165.983 108.783 166.217 109.967 166.217 111.25C166.217 112.533 165.983 113.717 165.517 114.8C165.067 115.883 164.425 116.825 163.592 117.625C162.775 118.425 161.808 119.05 160.692 119.5C159.575 119.933 158.358 120.15 157.042 120.15ZM157.042 118.5C158.092 118.5 159.058 118.325 159.942 117.975C160.842 117.608 161.617 117.1 162.267 116.45C162.933 115.783 163.45 115.017 163.817 114.15C164.183 113.267 164.367 112.3 164.367 111.25C164.367 110.2 164.183 109.242 163.817 108.375C163.45 107.492 162.933 106.725 162.267 106.075C161.617 105.408 160.842 104.9 159.942 104.55C159.058 104.183 158.092 104 157.042 104C155.992 104 155.017 104.183 154.117 104.55C153.217 104.9 152.433 105.408 151.767 106.075C151.117 106.725 150.6 107.492 150.217 108.375C149.85 109.242 149.667 110.2 149.667 111.25C149.667 112.283 149.85 113.242 150.217 114.125C150.6 115.008 151.117 115.783 151.767 116.45C152.433 117.1 153.217 117.608 154.117 117.975C155.017 118.325 155.992 118.5 157.042 118.5Z" fill="black"/>
<path d="M135.441 110.975H144.691V112.575H135.441V110.975ZM135.641 120H133.791V102.5H145.791V104.1H135.641V120Z" fill="black"/>
<path d="M113.454 120V102.5H114.979L127.054 117.7H126.254V102.5H128.079V120H126.554L114.504 104.8H115.304V120H113.454Z" fill="black"/>
<path d="M105.91 120V102.5H107.76V120H105.91Z" fill="black"/>
<path d="M75.4902 120V102.5H77.0152L85.0152 116.15H84.2152L92.1402 102.5H93.6652V120H91.8902V105.275H92.3152L85.0152 117.775H84.1402L76.7902 105.275H77.2652V120H75.4902Z" fill="black"/>
<path d="M60.4166 110.325H69.6666V111.9H60.4166V110.325ZM60.6166 118.4H71.1416V120H58.7666V102.5H70.7666V104.1H60.6166V118.4Z" fill="black"/>
<path d="M47.8111 120V104.1H41.6611V102.5H55.8111V104.1H49.6611V120H47.8111Z" fill="black"/>
<path d="M34.0996 120.15C32.7996 120.15 31.5496 119.942 30.3496 119.525C29.1663 119.092 28.2496 118.542 27.5996 117.875L28.3246 116.45C28.9413 117.05 29.7663 117.558 30.7996 117.975C31.8496 118.375 32.9496 118.575 34.0996 118.575C35.1996 118.575 36.0913 118.442 36.7746 118.175C37.4746 117.892 37.9829 117.517 38.2996 117.05C38.6329 116.583 38.7996 116.067 38.7996 115.5C38.7996 114.817 38.5996 114.267 38.1996 113.85C37.8163 113.433 37.3079 113.108 36.6746 112.875C36.0413 112.625 35.3413 112.408 34.5746 112.225C33.8079 112.042 33.0413 111.85 32.2746 111.65C31.5079 111.433 30.7996 111.15 30.1496 110.8C29.5163 110.45 28.9996 109.992 28.5996 109.425C28.2163 108.842 28.0246 108.083 28.0246 107.15C28.0246 106.283 28.2496 105.492 28.6996 104.775C29.1663 104.042 29.8746 103.458 30.8246 103.025C31.7746 102.575 32.9913 102.35 34.4746 102.35C35.4579 102.35 36.4329 102.492 37.3996 102.775C38.3663 103.042 39.1996 103.417 39.8996 103.9L39.2746 105.375C38.5246 104.875 37.7246 104.508 36.8746 104.275C36.0413 104.042 35.2329 103.925 34.4496 103.925C33.3996 103.925 32.5329 104.067 31.8496 104.35C31.1663 104.633 30.6579 105.017 30.3246 105.5C30.0079 105.967 29.8496 106.5 29.8496 107.1C29.8496 107.783 30.0413 108.333 30.4246 108.75C30.8246 109.167 31.3413 109.492 31.9746 109.725C32.6246 109.958 33.3329 110.167 34.0996 110.35C34.8663 110.533 35.6246 110.733 36.3746 110.95C37.1413 111.167 37.8413 111.45 38.4746 111.8C39.1246 112.133 39.6413 112.583 40.0246 113.15C40.4246 113.717 40.6246 114.458 40.6246 115.375C40.6246 116.225 40.3913 117.017 39.9246 117.75C39.4579 118.467 38.7413 119.05 37.7746 119.5C36.8246 119.933 35.5996 120.15 34.0996 120.15Z" fill="black"/>
<path d="M21.7305 120V102.5H23.5805V120H21.7305Z" fill="black"/>
<path d="M11.1748 120.15C9.8748 120.15 8.6248 119.942 7.4248 119.525C6.24147 119.092 5.3248 118.542 4.6748 117.875L5.3998 116.45C6.01647 117.05 6.84147 117.558 7.8748 117.975C8.9248 118.375 10.0248 118.575 11.1748 118.575C12.2748 118.575 13.1665 118.442 13.8498 118.175C14.5498 117.892 15.0581 117.517 15.3748 117.05C15.7081 116.583 15.8748 116.067 15.8748 115.5C15.8748 114.817 15.6748 114.267 15.2748 113.85C14.8915 113.433 14.3831 113.108 13.7498 112.875C13.1165 112.625 12.4165 112.408 11.6498 112.225C10.8831 112.042 10.1165 111.85 9.3498 111.65C8.58314 111.433 7.8748 111.15 7.2248 110.8C6.59147 110.45 6.0748 109.992 5.6748 109.425C5.29147 108.842 5.0998 108.083 5.0998 107.15C5.0998 106.283 5.3248 105.492 5.7748 104.775C6.24147 104.042 6.9498 103.458 7.89981 103.025C8.8498 102.575 10.0665 102.35 11.5498 102.35C12.5331 102.35 13.5081 102.492 14.4748 102.775C15.4415 103.042 16.2748 103.417 16.9748 103.9L16.3498 105.375C15.5998 104.875 14.7998 104.508 13.9498 104.275C13.1165 104.042 12.3081 103.925 11.5248 103.925C10.4748 103.925 9.60814 104.067 8.9248 104.35C8.24147 104.633 7.73314 105.017 7.3998 105.5C7.08314 105.967 6.9248 106.5 6.9248 107.1C6.9248 107.783 7.11647 108.333 7.4998 108.75C7.89981 109.167 8.41647 109.492 9.04981 109.725C9.69981 109.958 10.4081 110.167 11.1748 110.35C11.9415 110.533 12.6998 110.733 13.4498 110.95C14.2165 111.167 14.9165 111.45 15.5498 111.8C16.1998 112.133 16.7165 112.583 17.0998 113.15C17.4998 113.717 17.6998 114.458 17.6998 115.375C17.6998 116.225 17.4665 117.017 16.9998 117.75C16.5331 118.467 15.8165 119.05 14.8498 119.5C13.8998 119.933 12.6748 120.15 11.1748 120.15Z" fill="black"/>
</svg>
